<?xml version="1.0" encoding="UTF-8" standalone="no"?>
<svg xmlns="http://www.w3.org/2000/svg" width="200" height="60" viewBox="0 0 200 60" fill="none">
  <path d="M30 10C18.954 10 10 18.954 10 30C10 41.046 18.954 50 30 50C41.046 50 50 41.046 50 30C50 18.954 41.046 10 30 10Z" fill="#3B82F6"/>
  <path d="M30 15C21.716 15 15 21.716 15 30C15 38.284 21.716 45 30 45C38.284 45 45 38.284 45 30C45 21.716 38.284 15 30 15Z" fill="white"/>
  <path d="M30 20C24.477 20 20 24.477 20 30C20 35.523 24.477 40 30 40C35.523 40 40 35.523 40 30C40 24.477 35.523 20 30 20Z" fill="#3B82F6"/>
  <path d="M25 30H35" stroke="white" stroke-width="2" stroke-linecap="round"/>
  <path d="M30 25V35" stroke="white" stroke-width="2" stroke-linecap="round"/>
  <path d="M60 20H65V40H60V20Z" fill="#3B82F6"/>
  <path d="M70 20H75C78.866 20 82 23.134 82 27V33C82 36.866 78.866 40 75 40H70V20Z" fill="#3B82F6"/>
  <path d="M87 20H92C95.866 20 99 23.134 99 27V33C99 36.866 95.866 40 92 40H87V20Z" fill="#3B82F6"/>
  <path d="M104 20H109V30C109 33.866 112.134 37 116 37C119.866 37 123 33.866 123 30V20H128V30C128 36.627 122.627 42 116 42C109.373 42 104 36.627 104 30V20Z" fill="#3B82F6"/>
  <path d="M133 20H138V40H133V20Z" fill="#3B82F6"/>
  <path d="M143 20H148V35H158V40H143V20Z" fill="#3B82F6"/>
  <path d="M163 20H178V25H168V27.5H176V32.5H168V35H178V40H163V20Z" fill="#3B82F6"/>
  <path d="M183 20H188C194.627 20 200 25.373 200 32V40H195V32C195 28.134 191.866 25 188 25H183V20Z" fill="#3B82F6"/>
</svg>
