<?xml version="1.0" encoding="UTF-8" standalone="no"?>
<svg xmlns="http://www.w3.org/2000/svg" width="400" height="300" viewBox="0 0 400 300" fill="none">
  <!-- Background -->
  <rect width="400" height="300" rx="10" fill="#F3F4F6"/>
  
  <!-- Medical Record Document -->
  <rect x="50" y="30" width="300" height="240" rx="5" fill="white" stroke="#D1D5DB" stroke-width="2"/>
  
  <!-- Header -->
  <rect x="70" y="50" width="260" height="30" rx="3" fill="#EFF6FF"/>
  <rect x="80" y="60" width="120" height="10" rx="2" fill="#3B82F6"/>
  <rect x="210" y="60" width="60" height="10" rx="2" fill="#3B82F6"/>
  <rect x="280" y="60" width="40" height="10" rx="2" fill="#3B82F6"/>
  
  <!-- Patient Info -->
  <rect x="70" y="90" width="260" height="40" rx="3" fill="#F9FAFB"/>
  <rect x="80" y="100" width="80" height="8" rx="2" fill="#9CA3AF"/>
  <rect x="80" y="115" width="120" height="8" rx="2" fill="#4B5563"/>
  <rect x="210" y="100" width="60" height="8" rx="2" fill="#9CA3AF"/>
  <rect x="210" y="115" width="80" height="8" rx="2" fill="#4B5563"/>
  
  <!-- Medical Data -->
  <rect x="70" y="140" width="260" height="1" fill="#E5E7EB"/>
  
  <rect x="80" y="150" width="100" height="8" rx="2" fill="#9CA3AF"/>
  <rect x="80" y="165" width="240" height="8" rx="2" fill="#6B7280"/>
  <rect x="80" y="180" width="240" height="8" rx="2" fill="#6B7280"/>
  
  <rect x="70" y="195" width="260" height="1" fill="#E5E7EB"/>
  
  <rect x="80" y="205" width="100" height="8" rx="2" fill="#9CA3AF"/>
  <rect x="80" y="220" width="240" height="8" rx="2" fill="#6B7280"/>
  <rect x="80" y="235" width="240" height="8" rx="2" fill="#6B7280"/>
  
  <!-- Medical Cross Symbol -->
  <circle cx="330" cy="50" r="15" fill="#3B82F6" opacity="0.2"/>
  <path d="M330 40V60" stroke="#3B82F6" stroke-width="3" stroke-linecap="round"/>
  <path d="M320 50H340" stroke="#3B82F6" stroke-width="3" stroke-linecap="round"/>
</svg>
